<?xml version="1.0" encoding="UTF-8" standalone="no"?>
<svg
   version="1.1"
   viewBox="0 0 1480.6821 935.32037"
   width="1480.6821pt"
   height="935.32037pt"
   id="svg32"
   sodipodi:docname="logo_dark.svg"
   inkscape:version="1.3.2 (091e20e, 2023-11-25)"
   xmlns:inkscape="http://www.inkscape.org/namespaces/inkscape"
   xmlns:sodipodi="http://sodipodi.sourceforge.net/DTD/sodipodi-0.dtd"
   xmlns="http://www.w3.org/2000/svg"
   xmlns:svg="http://www.w3.org/2000/svg">
  <defs
     id="defs32" />
  <sodipodi:namedview
     id="namedview32"
     pagecolor="#ffffff"
     bordercolor="#000000"
     borderopacity="0.25"
     inkscape:showpageshadow="2"
     inkscape:pageopacity="0.0"
     inkscape:pagecheckerboard="0"
     inkscape:deskcolor="#d1d1d1"
     inkscape:document-units="pt"
     inkscape:zoom="0.67659198"
     inkscape:cx="962.17517"
     inkscape:cy="922.26928"
     inkscape:window-width="2560"
     inkscape:window-height="1387"
     inkscape:window-x="3432"
     inkscape:window-y="25"
     inkscape:window-maximized="0"
     inkscape:current-layer="svg32" />
  <path
     d="m 481.11957,0.01555555 c 49,0.02 98,-0.02 147,0.02 126.27,-0.04 252.72,0 379.00003,-0.03 9.7,0.02 20.04,-0.03 29.52,2.11000005 19.44,3.98 37.05,15.1100004 49.43,30.5500004 12.26,15.54 18.52,35.23 18.27,54.96 0.08,166.330004 0,332.670004 -0.03,499.000004 0.08,7.57 -0.13,15.04 -1.73,22.46 -3.89,19.77 -15.02,38.66 -31.26,50.75 -13.41,10.27 -29.54,15.97 -46.26,17.73 -6.66,0.43 -13.24,0.33 -19.94,0.34 -179.00003,0 -358.00003,0 -537.00003,0.01 -5.35,0.05 -10.7,0.03 -16.04,-0.32 -24.26,-2.2 -47.78,-15.08 -61.87,-35.06 -11.04,-15.24 -16.68,-34.12 -16.1,-52.91 0.02,-167.66 0.01,-335.33 0,-502.990004 -0.27,-9.16 1.14,-18.4 3.9,-27.12 9.55,-30.03 37.03,-53.0600004 68.04,-58.0000004 11.89,-2.00000005 23.11,-1.41000005 35.07,-1.50000005 z"
     fill="#000000"
     id="path2"
     style="fill:#600d1c;fill-opacity:1" />
  <path
     d="m 460.08957,22.615556 c 93.35,0.03 186.72,-0.01 280.08,0.01 9.46,0.64 18.73,3.11 26.85,8.12 10.76,6.63 19,16.99 22.98,28.99 13.33,43.060004 26.58,86.110004 39.82,129.200004 5.14,17.38 21.47,30.42 39.34,32.54 3.96,0.33 7.98,0.1 11.96,0.16 65.35,0.01 131.74003,-0.04 196.97003,0.03 2.26,-0.21 3.89,1.89 3.77,4.03 0.13,10.32 -0.06,20.66 0.06,30.98 -0.1,1.97 0.26,4.2 -1.05,5.83 -2.32,1.07 -5.2,1.01 -7.71,1.1 -15.34,0.24 -30.69,0.12 -46.04,0.03 -8.33,-0.25 -16.66,-0.53 -25,-0.51 -171.00003,0.01 -342.00003,-0.01 -513.00003,-0.01 -8.98,0.01 -18.02,-0.14 -26.99,0.4 -19.34,0.42 -38.69,0.49 -58.04,0.36 -3.13,-0.33 -6.01,0.69 -7.81,-2.57 -0.37,-2.85 -0.15,-5.81 -0.19,-8.68 0.01,-54.67 0.02,-109.33 0.01,-163.990004 -0.53,-18.87 7.73,-37.64 22.11,-49.89 11.52,-10.14 26.53,-15.93 41.88,-16.13 z"
     fill="#ffffff"
     id="path3"
     style="fill:#f94b6c;fill-opacity:1" />
  <path
     d="m 952.14957,55.825556 c 2.86,0.21 6.17,0.56 8.65,2.11 2.27,1.62 3.45,3.82 3.33,6.65 0.03,10.69 -0.05,21.39 -0.04,32.09 -0.09,1.79 0.56,3.23 1.24,4.830004 12.94,0.3 25.89,0.06 38.82003,0.12 4,-0.11 7.42,2.61 8.61,6.36 0.98,3.66 0.8,7.7 0.1,11.39 -1,3.95 -4.7,6.4 -8.7,6.26 -12.01003,0.02 -24.04003,-0.06 -36.05003,-0.01 -1.61,-0.05 -2.47,0.39 -3.61,1.48 -0.45,1.4 -0.37,3 -0.41,4.46 0.06,12.35 0.03,24.73 0.02,37.08 0.05,4.24 -4.05,7.55 -8.03,7.95 -3.89,0.35 -9.1,0.82 -12.49,-1.46 -2.51,-1.47 -3.58,-4.68 -3.48,-7.46 -0.01,-12.35 0.04,-24.73 0,-37.08 0.1,-2.46 -1.21,-5.13 -4.01,-4.94 -12.33,-0.13 -24.67,0.06 -37,-0.04 -4.02,-0.13 -7.33,-2.75 -8.3,-6.68 -1.18,-4.34 -1.32,-10.29 1.58,-14.03 1.85,-2.14 4.91,-3.32 7.7,-3.28 12,-0.06 24.02,0.1 36.02,-0.01 2.09,0.25 4.25,-1.940004 3.99,-4.020004 0.17,-11.27 -0.16,-22.6 0.13,-33.87 1.11,-5.51 6.77,-7.93 11.93,-7.9 z"
     fill="#ffffff"
     id="path4"
     style="fill:#f94b6c;fill-opacity:1" />
  <path
     d="m 602.09957,52.665556 c 6.58,-0.08 12.76,-0.42 19.21,0.82 19.33,2.91 37.37,13.09 49.57,28.38 10.59,13.11 17.13,29.870004 17.5,46.760004 0.57,12.27 -1.43,24.61 -6.37,35.88 -7.23,16.69 -20.28,31.17 -36.51,39.51 -25.28,12.99 -57.19,11.08 -80.62,-5.07 -5.99,6.78 -12.69,12.96 -19.01,19.43 -4.73,4.55 -9.13,9.64 -14.31,13.68 -5.1,4 -11.91,5.57 -18.08,3.25 -7.52,-2.43 -12.79,-10.55 -11.12,-18.42 1.56,-6.38 6.53,-11.47 11.03,-15.99 9.21,-9.21 18.46,-18.45 27.69,-27.64 -10.64,-17.07 -14.57,-38.12 -10.19,-57.8 4.13,-19.840004 16.05,-37.830004 32.77,-49.290004 11.38,-7.82 24.68,-12.46 38.44,-13.5 z"
     fill="#000000"
     id="path5"
     style="fill:#600d1c;fill-opacity:1" />
  <path
     d="m 606.06957,77.625556 c 20.21,-0.81 40.16,10.35 50.04,28.000004 6.65,11.86 8.91,26.39 5.65,39.63 -5.01,21.42 -23.61,38.53 -45.45,41.5 -8.85,1.99 -18.02,0.08 -26.42,-2.89 -16.57,-6.15 -29.46,-21.22 -33.74,-38.26 -1.43,-6.35 -2.59,-12.9 -1.29,-19.35 1.38,-12.43 7.17,-24.08 15.99,-32.900004 9.35,-9.4 22.05,-14.8 35.22,-15.73 z"
     fill="#ffffff"
     id="path6"
     style="fill:#f94b6c;fill-opacity:1" />
  <path
     d="m 398.48957,285.94556 c 4.44,-0.74 9.14,-0.21 13.63,-0.33 101.33,-0.01 202.67,0.06 303.99,-0.03 3.28,0.2 8.1,-0.77 10.8,1.4 0.99,3.68 0.49,7.85 0.56,11.64 -0.02,24.93 -0.03,49.87 -0.01,74.8 -9.78,-0.16 -19.56,0.31 -29.34,0.2 -11.69,-0.03 -23.36,-0.03 -35.04,0.43 -22.71,0.31 -45.42,0.46 -68.13,0.81 -9.44,-3.05 -18.93,-4.63 -28.84,-5.08 -17.32,0.03 -34.45,4.55 -49.3,13.54 -21.44,12.83 -37.56,35 -42.37,59.6 -1.79,8.35 -1.73,17.23 -1.39,25.73 0.17,6.39 1.81,12.92 3.16,19.18 -2.75,-3.8 -5.07,-7.85 -7.3,-11.97 -13.32,-23.95 -27.26,-47.56 -40.43,-71.59 -7.36,-12.97 -14.8,-25.91 -22.14,-38.89 -3.32,-6.06 -6.61,-12.12 -10.21,-18.01 -0.16,-18.27 0.06,-36.54 -0.11,-54.8 0.18,-2.64 -0.44,-5.33 2.47,-6.63 z"
     fill="#eb3c25"
     id="path7" />
  <path
     d="m 762.11957,285.60556 c 105.02,0.04 210.03,0.01 315.04003,0.01 3.69,-0.06 4.73,1.48 4.77,4.99 0.02,98.34 0,196.68 0,295.02 -0.11,7.95 -0.59,16.31 -2.85,23.97 -2.61,9.01 -7.23,17.52 -13.52,24.5 -9.61,10.86 -23.18,18.18 -37.42,20.68 -6.02,1.14 -11.94,0.95 -18.02,0.96 -81.67003,0.02 -163.33003,-0.01 -245.00003,-0.01 -4.28,-0.05 -8.6,0.2 -12.87,-0.12 -1.69,-0.08 -2.26,-1.48 -2.17,-3 -0.01,-116.32 -0.02,-232.65 0,-348.98 0.04,-5.58 -0.23,-11.23 0.15,-16.79 3.3,-1.99 8.15,-1.04 11.89,-1.23 z"
     fill="#0b90e0"
     id="path8" />
  <path
     d="m 896.43957,314.14556 c 15.05,-1.53 30.51,-1.22 45.35,1.91 30.83,6.4 59.67003,22.75 80.89003,46.01 16.32,17.85 27.84,39.79 33.81,63.19 6.88,27.52 5.43,56.94 -4.12,83.64 -8.79,25.04 -24.42,47.23 -44.94,64.03 -22.97003,18.78 -51.48003,30.58 -81.10003,32.93 -8.24,0.96 -16.3,1 -24.55,0.09 -26.28,-1.97 -51.76,-11.49 -73.14,-26.85 -35.94,-25.73 -58.76,-68.32 -60.52,-112.47 -0.02,-5.97 -0.14,-11.97 0.17,-17.93 1.09,-11.53 3.16,-23.15 6.75,-34.17 8.5,-26.1 24.4,-49.9 45.41,-67.58 21.36,-18.24 48.07,-29.78 75.99,-32.8 z"
     fill="#ffffff"
     id="path9" />
  <path
     d="m 909.07957,331.66556 c 8.78,-0.43 17.44,0.47 26.08,1.91 22.56,3.92 43.5,14.38 61.04,28.96 17.05003,14.83 30.53003,33.54 38.16003,54.88 7.44,20.29 9.08,42.67 5.46,63.92 -3.78,22.54 -13.92,43.91 -28.62,61.36 -11.15,12.86 -24.18003,23.86 -39.40003,31.61 -17.74,8.98 -37.79,13.81 -57.68,13.56 -24.44,0.45 -49.08,-7.49 -69.54,-20.7 -22.26,-14.24 -39.67,-36.12 -49.38,-60.63 -7.2,-18.82 -10.85,-39.89 -8.4,-59.99 2.16,-22.82 11.19,-45.05 24.8,-63.44 14.97,-19.99 35.43,-35.65 59.05,-43.97 12.39,-4.54 25.3,-6.64 38.43,-7.47 z"
     fill="#0b90e0"
     id="path10" />
  <path
     d="m 914.74957,340.85556 c 3.4,2.28 2.12,8.25 2.4,11.77 -0.07,2.82 0.18,5.81 -0.4,8.57 -1.62,3.82 -8.73,3.51 -9.64,-0.73 -0.6,-3.2 -0.42,-6.59 -0.48,-9.84 0.07,-2.72 -0.12,-5.92 0.93,-8.47 1.53,-2.18 4.94,-1.96 7.19,-1.3 z"
     fill="#ffffff"
     id="path11" />
  <path
     d="m 945.51957,345.87556 c 2.77,-0.58 5.72,-0.58 7.21,2.25 1.23,2.62 -0.34,6.32 -1.2,8.89 -1.27,3.25 -2.19,6.95 -4.16,9.85 -2.31,3.49 -9.2,1.06 -8.53,-3.25 0.23,-3.77 1.89,-7.57 3.14,-11.11 0.91,-2.2 1.75,-5 3.54,-6.63 z"
     fill="#ffffff"
     id="path12" />
  <path
     d="m 873.43957,346.81556 c 1.41,-0.33 2.91,-0.32 4.33,-0.02 2.26,1.76 3.29,5.24 4.4,7.8 1.15,3.18 2.82,6.58 3.01,9.97 0.14,2.95 -3.34,4.98 -6.01,4.46 -2.63,-0.16 -3.51,-2.94 -4.5,-4.94 -1.57,-3.83 -3.32,-7.69 -4.39,-11.7 -0.72,-2.57 0.67,-4.79 3.16,-5.57 z"
     fill="#ffffff"
     id="path13" />
  <path
     d="m 396.12957,347.37556 c 3.6,5.89 6.89,11.95 10.21,18.01 7.34,12.98 14.78,25.92 22.14,38.89 13.17,24.03 27.11,47.64 40.43,71.59 2.23,4.12 4.55,8.17 7.3,11.97 3.67,11.62 8.93,22.58 16.64,32.07 11.77,14.93 28.67,25.84 46.89,31.09 29.53,8.58 63.55,1.26 86.66,-19.09 4.56,-4.03 8.7,-8.73 12.72,-13.31 -2.43,5.77 -5.71,10.79 -8.82,16.2 -17.84,30.53 -35.48,61.17 -53.31,91.7 -5.6,9.88 -11.63,19.53 -17.04,29.52 -7.25,0.32 -14.57,0.05 -21.83,-0.03 -26,-0.22 -52.01,-0.06 -78.01,-0.26 -18.01,-0.31 -35.47,-8.16 -47.49,-21.59 -8.61,-9.81 -14.24,-22.27 -15.88,-35.22 -0.89,-5.8 -0.63,-11.46 -0.63,-17.29 0.02,-78.08 -0.03,-156.18 0.02,-234.25 z"
     fill="#41a051"
     id="path14" />
  <path
     d="m 845.99957,364.73556 c 2.33,1.94 4.13,4.63 6.01,7 1.58,2.09 3.33,4.16 4.6,6.46 1.74,2.86 -1.32,6.88 -4.5,6.61 -2.9,0.22 -4.44,-2.08 -6.16,-4.01 -2.45,-3.22 -5.15,-6.34 -7.3,-9.78 -2.67,-4.01 3.93,-9.6 7.35,-6.28 z"
     fill="#ffffff"
     id="path15" />
  <path
     d="m 566.10957,369.78556 c 9.91,0.45 19.4,2.03 28.84,5.08 11.69,4.57 22.63,10.48 31.96,18.97 16.24,14.14 27.49,34.42 30.14,55.85 2.4,16.53 -0.08,33.92 -6.61,49.26 -2.91,7.09 -7.11,13.31 -11.32,19.65 -4.02,4.58 -8.16,9.28 -12.72,13.31 -23.11,20.35 -57.13,27.67 -86.66,19.09 -18.22,-5.25 -35.12,-16.16 -46.89,-31.09 -7.71,-9.49 -12.97,-20.45 -16.64,-32.07 -1.35,-6.26 -2.99,-12.79 -3.16,-19.18 -0.34,-8.5 -0.4,-17.38 1.39,-25.73 4.81,-24.6 20.93,-46.77 42.37,-59.6 14.85,-8.99 31.98,-13.51 49.3,-13.54 z"
     fill="#ffffff"
     id="path16" />
  <path
     d="m 698.11957,373.62556 c 9.78,0.11 19.56,-0.36 29.34,-0.2 0,89.74 0.04,179.47 0.03,269.2 0.02,4.3 0.3,8.51 -0.58,12.76 -4.26,0.54 -8.51,0.44 -12.79,0.38 -46.33,0 -92.67,0 -139,0.01 -5.06,0.02 -10.11,-0.06 -15.17,0.24 5.41,-9.99 11.44,-19.64 17.04,-29.52 17.83,-30.53 35.47,-61.17 53.31,-91.7 3.11,-5.41 6.39,-10.43 8.82,-16.2 4.21,-6.34 8.41,-12.56 11.32,-19.65 6.53,-15.34 9.01,-32.73 6.61,-49.26 -2.65,-21.43 -13.9,-41.71 -30.14,-55.85 -9.33,-8.49 -20.27,-14.4 -31.96,-18.97 22.71,-0.35 45.42,-0.5 68.13,-0.81 11.68,-0.46 23.35,-0.46 35.04,-0.43 z"
     fill="#fcc01f"
     id="path17" />
  <path
     d="m 991.36957,375.31556 c -0.07,2.72 -1.11,4.81 -2.46,7.08 -14.17,24.52 -28.15,49.13 -42.41,73.6 -5.01,8.2 -8.28,16.2 -16.27,22.03 -3.89,-4.28 -7.82,-8.5 -11.89,-12.61 -7.48,-7.7 -14.52,-15.84 -22.31,-23.31 4.97,-3.94 10.12,-7.62 15.3,-11.27 23.64,-17.05 47.34,-34.05 71.16,-50.86 3.02,-1.99 4.99,-4.55 8.88,-4.66 z"
     fill="#eb3c25"
     id="path18" />
  <path
     d="m 555.44957,392.00556 c 24.84,-3.15 50.87,7.15 66.36,26.94 9.84,12.38 15.01,27.94 15.28,43.69 -0.5,15.49 -5.33,30.74 -14.99,42.98 -10.69,13.57 -26.46,23.43 -43.52,26.48 -6.65,1.15 -13.03,2.1 -19.79,1.09 -21.91,-2.09 -42.95,-14.97 -54.47,-33.77 -8.72,-14.52 -12.25,-32.17 -9.35,-48.89 2.33,-14.17 9.1,-27.62 19.28,-37.77 10.81,-11.24 25.84,-18.46 41.2,-20.75 z"
     fill="#0b90e0"
     id="path19" />
  <path
     d="m 819.77957,391.88556 c 3.87,1.55 7.43,3.97 11.06,6 1.86,1.16 4.59,2.65 5.23,4.9 0.21,2.13 -1.65,4.49 -3.37,5.57 -3.39,1.35 -7.08,-1.8 -10.01,-3.24 -2.8,-1.69 -6.37,-3.08 -8.56,-5.54 -2.83,-3.37 1.6,-9.34 5.65,-7.69 z"
     fill="#ffffff"
     id="path20" />
  <path
     d="m 1020.5296,417.02556 c 3.07,-1.21 6.24,2.59 5.77,5.55 0.2,2.62 -2.51,3.74 -4.42,4.81 -3.92,1.82 -7.9,3.74 -12.05,4.98 -3.45,1.2 -5.98,-2.59 -5.71,-5.66 -0.2,-2.33 2.28,-3.16 3.9,-4.18 4.06,-2.02 8.18,-4.12 12.51,-5.5 z"
     fill="#ffffff"
     id="path21" />
  <path
     d="m 809.43957,425.27556 c 3.58,1.29 7.62,2.16 10.85,4.2 3.17,2.44 1.56,7.86 -2.21,8.6 -3.02,0.25 -6.33,-1.28 -9.2,-2.15 -2.64,-0.95 -5.58,-1.59 -8.01,-3.02 -2.94,-1.72 -2.03,-6.44 0.61,-8.02 2.48,-1.68 5.39,-0.3 7.96,0.39 z"
     fill="#ffffff"
     id="path22" />
  <path
     d="m 896.02957,442.10556 c 7.79,7.47 14.83,15.61 22.31,23.31 4.07,4.11 8,8.33 11.89,12.61 -9.11,6.84 -18.54,13.27 -27.78,19.93 -21.01,15.11 -41.95,29.95 -62.85,45.16 -2.34,1.6 -2.9,1.78 -5.59,0.73 2.43,-5.85 5.82,-10.96 8.82,-16.53 12.53,-22.12 25.12,-44.22 37.55,-66.41 3.94,-7.43 8.45,-14.15 15.65,-18.8 z"
     fill="#ffffff"
     id="path23" />
  <path
     d="m 1015.5496,454.27556 c 4.88,-0.41 10.17,-0.92 15.01,-0.05 3.68,0.92 4.51,4.64 2.85,7.67 -1.57,2.29 -4.8,2.09 -7.25,2.29 -4.01,0.01 -8.38,0.57 -12.3,-0.35 -3.36,-0.98 -3.3,-5.12 -2.49,-7.85 1.2,-1.02 2.64,-1.49 4.18,-1.71 z"
     fill="#ffffff"
     id="path24" />
  <path
     d="m 814.02957,459.74556 c 4.09,0.18 5.56,6.74 1.91,8.72 -2.58,1.27 -5.94,1.16 -8.76,1.55 -3.21,0.29 -6.62,0.85 -9.83,0.46 -4.23,-0.71 -4.83,-8.17 -0.53,-9.16 5.12,-1.34 11.95,-1.96 17.21,-1.57 z"
     fill="#ffffff"
     id="path25" />
  <path
     d="m 1008.4496,486.80556 c 2.86,-0.68 6.18,0.66 8.9,1.56 3.02,1.14 6.34,2.15 9.04,3.96 3.43,2 1.64,8.58 -2.34,8.42 -3.74,0.06 -7.65,-1.66 -11.16,-2.85 -2.16,-0.88 -5.03,-1.68 -6.6,-3.49 -1.85,-2.51 -0.56,-6.31 2.16,-7.6 z"
     fill="#ffffff"
     id="path26" />
  <path
     d="m 821.04957,489.48556 c 3.94,-0.06 5.64,5.6 3.11,8.15 -2.29,1.81 -5.18,2.99 -7.78,4.27 -3.14,1.34 -6.69,3.67 -10.14,3.69 -4.01,-0.33 -5.64,-6.05 -2.67,-8.53 2.75,-2.04 6.17,-3.29 9.24,-4.78 2.55,-1.09 5.44,-2.77 8.24,-2.8 z"
     fill="#ffffff"
     id="path27" />
  <path
     d="m 992.40957,515.71556 c 3.54,-1.17 7.21,1.79 10.13003,3.47 2.81,1.96 6.61,3.79 8.45,6.75 0.79,3.11 -2.08,7.64 -5.65,6.56 -2.78,-0.92 -5.31,-2.77 -7.85003,-4.22 -2.38,-1.52 -5.17,-2.88 -7.14,-4.93 -2.29,-2.37 -0.4,-6.26 2.06,-7.63 z"
     fill="#ffffff"
     id="path28" />
  <path
     d="m 973.81957,537.65556 c 2.3,1.67 3.9,4.45 5.61,6.68 1.88,2.73 4.27,5.42 5.53,8.5 0.46,4.17 -5.34,8.09 -8.56,4.5 -3.12,-3.54 -6.89,-8.89 -9.18,-13.02 -2.22,-3.59 3,-8.82 6.6,-6.66 z"
     fill="#ffffff"
     id="path29" />
  <path
     d="m 886.01957,554.72556 c -0.39,2.7 -1.92,5.3 -2.96,7.81 -1.37,2.86 -2.43,6.14 -4.36,8.67 -2.94,3.33 -9.9,0.18 -8.56,-4.43 1.46,-4.81 3.77,-9.59 6.03,-14.08 2.24,-4.57 9.05,-2.56 9.85,2.03 z"
     fill="#ffffff"
     id="path30" />
  <path
     d="m 940.58957,551.90556 c 2.11,-1.03 5.4,-0.56 6.47,1.79 1.46,2.7 2.33,5.76 3.38,8.64 1.01,3.06 2.37,6.76 1.59,9.98 -1.55,3.07 -7.64,4 -8.91,0.27 -2,-4.52 -3.53,-9.43 -4.84,-14.2 -0.65,-2.84 -0.47,-4.99 2.31,-6.48 z"
     fill="#ffffff"
     id="path31" />
  <path
     d="m 909.61957,556.98556 c 2.37,-0.85 4.95,-0.45 6.39,1.78 1.5,2.42 1,6.1 1.14,8.85 -0.16,3.16 0.44,7.11 -0.99,10 -1.36,3.79 -8.47,2.85 -9.07,-1.13 -0.73,-4.21 -0.43,-8.65 -0.41,-12.92 0.18,-2.78 0.05,-5.22 2.94,-6.58 z"
     fill="#ffffff"
     id="path32" />
  <path
     style="font-weight:500;font-size:143.946px;font-family:Rubik;-inkscape-font-specification:'Rubik Medium';fill:#f5f5f5;stroke-width:2.72024;fill-opacity:1"
     d="m 3.4547039,896.13037 q -1.43946,0 -2.4470819,-1.00762 Q -3.8146972e-8,894.11513 -3.8146972e-8,892.67567 v -93.70885 q 0,-1.5834 1.007622038146972,-2.59103 1.0076219,-1.00762 2.4470819,-1.00762 H 40.736718 q 17.417466,0 27.493686,8.06098 10.076219,8.06097 10.076219,23.4632 0,10.652 -5.326001,17.70535 -5.182056,7.05336 -13.962762,10.22017 l 21.016115,36.70623 q 0.431838,0.86368 0.431838,1.58341 0,1.29551 -1.007622,2.15919 -0.863676,0.86367 -2.015243,0.86367 H 64.343862 q -2.447082,0 -3.742596,-1.29551 -1.295514,-1.29552 -2.015244,-2.59103 L 40.016988,858.12863 H 20.008494 v 34.54704 q 0,1.43946 -1.007622,2.44708 -0.863676,1.00762 -2.447082,1.00762 z M 20.008494,841.86273 H 40.30488 q 8.780706,0 13.099086,-3.88654 4.31838,-4.03049 4.31838,-11.22779 0,-7.1973 -4.31838,-11.22779 -4.174434,-4.17443 -13.099086,-4.17443 H 20.008494 Z m 80.321916,54.26764 q -1.439457,0 -2.447079,-1.00762 -1.007622,-1.00762 -1.007622,-2.44708 v -93.70885 q 0,-1.5834 1.007622,-2.59103 1.007622,-1.00762 2.447079,-1.00762 h 63.33624 q 1.58341,0 2.59103,1.00762 1.00762,1.00763 1.00762,2.59103 v 9.50044 q 0,1.43946 -1.00762,2.44708 -1.00762,1.00762 -2.59103,1.00762 h -47.35823 v 25.47844 h 44.19142 q 1.58341,0 2.59103,1.00763 1.00762,0.86367 1.00762,2.44708 v 8.92465 q 0,1.58341 -1.00762,2.59103 -1.00762,0.86367 -2.59103,0.86367 h -44.19142 v 26.34212 h 48.5098 q 1.58341,0 2.59103,1.00762 1.00762,1.00763 1.00762,2.59103 v 9.50044 q 0,1.43946 -1.00762,2.44708 -1.00762,1.00762 -2.59103,1.00762 z m 123.93739,1.43946 q -12.81119,0 -22.02374,-4.17443 -9.21254,-4.31838 -14.3946,-13.09909 -5.18205,-8.92465 -5.61389,-22.16768 -0.14395,-6.18968 -0.14395,-12.23541 0,-6.04573 0.14395,-12.37936 0.43184,-13.09908 5.75784,-21.87979 5.326,-8.78071 14.53854,-13.24303 9.35649,-4.46233 21.73585,-4.46233 12.37936,0 21.73585,4.46233 9.35649,4.46232 14.68249,13.24303 5.326,8.78071 5.75784,21.87979 0.28789,6.33363 0.28789,12.37936 0,6.04573 -0.28789,12.23541 -0.43184,13.24303 -5.6139,22.16768 -5.18205,8.78071 -14.53854,13.09909 -9.21255,4.17443 -22.02374,4.17443 z m 0,-16.55379 q 9.35649,0 15.25828,-5.46995 5.90178,-5.61389 6.33362,-18.13719 0.28789,-6.33363 0.28789,-11.65963 0,-5.46995 -0.28789,-11.65962 -0.28789,-8.34887 -3.16681,-13.53093 -2.73498,-5.326 -7.48519,-7.62914 -4.75022,-2.44708 -10.9399,-2.44708 -6.04573,0 -10.79595,2.44708 -4.75022,2.30314 -7.62914,7.62914 -2.73497,5.18206 -3.02286,13.53093 -0.14395,6.18967 -0.14395,11.65962 0,5.326 0.14395,11.65963 0.43183,12.5233 6.33362,18.13719 5.90179,5.46995 15.11433,5.46995 z m 64.77565,15.11433 q -1.43946,0 -2.44708,-1.00762 -1.00762,-1.00762 -1.00762,-2.44708 v -93.70885 q 0,-1.5834 1.00762,-2.59103 1.00762,-1.00762 2.44708,-1.00762 h 38.57753 q 11.22778,0 19.57665,3.59865 8.34887,3.45471 12.95514,10.65201 4.60627,7.05335 4.60627,17.70535 0,10.79595 -4.60627,17.84931 -4.60627,6.90941 -12.95514,10.36411 -8.34887,3.4547 -19.57665,3.4547 h -21.44796 v 33.68337 q 0,1.43946 -1.00762,2.44708 -0.86368,1.00762 -2.44708,1.00762 z m 16.84168,-53.11607 h 21.01612 q 8.34886,0 12.81119,-3.88654 4.46233,-4.03049 4.46233,-11.80358 0,-7.1973 -4.17444,-11.51568 -4.17443,-4.46232 -13.09908,-4.46232 h -21.01612 z m 78.01879,53.11607 q -1.43946,0 -2.44708,-1.00762 -1.00762,-1.00762 -1.00762,-2.44708 v -93.70885 q 0,-1.5834 1.00762,-2.59103 1.00762,-1.00762 2.44708,-1.00762 h 63.33624 q 1.58341,0 2.59103,1.00762 1.00762,1.00763 1.00762,2.59103 v 9.50044 q 0,1.43946 -1.00762,2.44708 -1.00762,1.00762 -2.59103,1.00762 h -47.35823 v 25.47844 h 44.19142 q 1.58341,0 2.59103,1.00763 1.00762,0.86367 1.00762,2.44708 v 8.92465 q 0,1.58341 -1.00762,2.59103 -1.00762,0.86367 -2.59103,0.86367 h -44.19142 v 26.34212 h 48.5098 q 1.58341,0 2.59103,1.00762 1.00762,1.00763 1.00762,2.59103 v 9.50044 q 0,1.43946 -1.00762,2.44708 -1.00762,1.00762 -2.59103,1.00762 z m 89.5344,0 q -1.43946,0 -2.44709,-1.00762 -1.00762,-1.00762 -1.00762,-2.44708 v -93.70885 q 0,-1.5834 1.00762,-2.59103 1.00763,-1.00762 2.44709,-1.00762 h 11.08384 q 2.01524,0 2.87892,1.00762 1.00762,0.86368 1.29551,1.29552 l 41.45645,64.48781 v -63.1923 q 0,-1.5834 0.86368,-2.59103 1.00762,-1.00762 2.59102,-1.00762 h 12.09147 q 1.5834,0 2.59103,1.00762 1.00762,1.00763 1.00762,2.59103 v 93.5649 q 0,1.58341 -1.00762,2.59103 -1.00763,1.00762 -2.44709,1.00762 h -11.22778 q -2.01525,0 -2.87892,-1.00762 -0.86368,-1.00762 -1.29552,-1.29551 l -41.3125,-63.04835 v 61.89678 q 0,1.43946 -1.00762,2.44708 -1.00762,1.00762 -2.59103,1.00762 z m 134.73355,0 q -1.43946,0 -2.44708,-1.00762 -1.00763,-1.00762 -1.00763,-2.44708 v -93.70885 q 0,-1.5834 1.00763,-2.59103 1.00762,-1.00762 2.44708,-1.00762 h 63.33624 q 1.5834,0 2.59102,1.00762 1.00763,1.00763 1.00763,2.59103 v 9.50044 q 0,1.43946 -1.00763,2.44708 -1.00762,1.00762 -2.59102,1.00762 h -47.35824 v 25.47844 h 44.19142 q 1.58341,0 2.59103,1.00763 1.00762,0.86367 1.00762,2.44708 v 8.92465 q 0,1.58341 -1.00762,2.59103 -1.00762,0.86367 -2.59103,0.86367 h -44.19142 v 26.34212 h 48.5098 q 1.58341,0 2.59103,1.00762 1.00762,1.00763 1.00762,2.59103 v 9.50044 q 0,1.43946 -1.00762,2.44708 -1.00762,1.00762 -2.59103,1.00762 z m 80.46576,0 q -1.29551,0 -2.15919,-0.86367 -0.86367,-0.86368 -0.86367,-2.15919 0,-0.43184 0.14394,-0.86368 0.14395,-0.43184 0.28789,-0.86368 l 32.24391,-46.6385 -30.22866,-44.62326 q -0.43184,-0.86368 -0.43184,-1.72735 0,-1.29552 0.86368,-2.15919 0.86367,-0.86368 2.15919,-0.86368 h 14.68249 q 1.72735,0 2.73497,0.86368 1.00762,0.86367 1.72735,1.8713 l 21.16007,31.09233 21.304,-31.09233 q 0.57579,-1.00763 1.58341,-1.8713 1.15157,-0.86368 2.87892,-0.86368 h 13.96276 q 1.29552,0 2.15919,0.86368 0.86368,0.86367 0.86368,2.15919 0,0.86367 -0.57579,1.72735 l -30.08471,44.62326 32.2439,46.6385 q 0.2879,0.43184 0.43184,0.86368 0.14395,0.43184 0.14395,0.86368 0,1.29551 -1.00762,2.15919 -0.86368,0.86367 -2.01525,0.86367 h -15.25827 q -1.72736,0 -2.73498,-0.86367 -1.00762,-0.86368 -1.5834,-1.72736 l -23.03136,-32.53179 -22.59953,32.53179 q -0.57578,0.86368 -1.5834,1.72736 -1.00762,0.86367 -2.87892,0.86367 z m 104.36096,0 q -1.43946,0 -2.44708,-1.00762 -1.00763,-1.00762 -1.00763,-2.44708 v -93.85279 q 0,-1.43946 1.00763,-2.44709 1.00762,-1.00762 2.44708,-1.00762 h 13.53092 q 1.58341,0 2.44708,1.00762 1.00763,1.00763 1.00763,2.44709 v 93.85279 q 0,1.43946 -1.00763,2.44708 -0.86367,1.00762 -2.44708,1.00762 z m 74.56403,1.43946 q -13.38698,0 -22.45558,-3.88654 -8.92465,-4.03049 -13.67487,-10.36411 -4.60627,-6.47757 -4.89416,-13.53093 0,-1.29551 0.86367,-2.15919 0.86368,-0.86367 2.15919,-0.86367 h 12.8112 q 1.8713,0 2.73497,0.86367 1.00762,0.71973 1.72735,1.8713 0.86368,2.73498 3.31076,5.46995 2.44708,2.59103 6.62152,4.31838 4.31838,1.72735 10.79595,1.72735 10.36411,0 15.40222,-3.4547 5.18206,-3.45471 5.18206,-9.35649 0,-4.17444 -2.73498,-6.62152 -2.73497,-2.59103 -8.49281,-4.60627 -5.6139,-2.15919 -14.97039,-4.46233 -10.79595,-2.59102 -18.13719,-6.18967 -7.1973,-3.7426 -10.9399,-9.35649 -3.59865,-5.6139 -3.59865,-14.25066 0,-8.34887 4.46233,-14.82644 4.60627,-6.47757 12.95514,-10.22016 8.49281,-3.7426 20.15244,-3.7426 9.35649,0 16.55379,2.59103 7.1973,2.44708 11.94752,6.62152 4.75021,4.03048 7.1973,8.7807 2.59102,4.60627 2.73497,9.0686 0,1.15157 -0.86368,2.15919 -0.71973,0.86368 -2.15919,0.86368 h -13.38697 q -1.15157,0 -2.30314,-0.57579 -1.15157,-0.57578 -1.8713,-2.15919 -0.86367,-4.46232 -5.61389,-7.62914 -4.75022,-3.16681 -12.23541,-3.16681 -7.77309,0 -12.5233,2.87892 -4.75022,2.87892 -4.75022,8.92465 0,4.03049 2.30313,6.76547 2.44709,2.59102 7.62914,4.60627 5.326,2.01524 13.96276,4.31838 12.23541,2.73497 20.0085,6.33362 7.77308,3.59865 11.37173,9.21255 3.59865,5.46994 3.59865,13.96276 0,9.50043 -5.18205,16.2659 -5.03811,6.62151 -14.25066,10.22016 -9.21254,3.59865 -21.44795,3.59865 z m 81.90535,-1.43946 q -1.43946,0 -2.44708,-1.00762 -1.00763,-1.00762 -1.00763,-2.44708 v -79.60214 h -26.63 q -1.43946,0 -2.44709,-1.00762 -1.00762,-1.00762 -1.00762,-2.44708 v -10.65201 q 0,-1.5834 1.00762,-2.59103 1.00763,-1.00762 2.44709,-1.00762 h 73.41245 q 1.58341,0 2.59103,1.00762 1.00762,1.00763 1.00762,2.59103 v 10.65201 q 0,1.43946 -1.00762,2.44708 -1.00762,1.00762 -2.59103,1.00762 h -26.48606 v 79.60214 q 0,1.43946 -1.00762,2.44708 -1.00762,1.00762 -2.59103,1.00762 z m 64.91963,0 q -1.4395,0 -2.4471,-1.00762 -1.0076,-1.00762 -1.0076,-2.44708 v -93.85279 q 0,-1.43946 1.0076,-2.44709 1.0076,-1.00762 2.4471,-1.00762 h 13.5309 q 1.5834,0 2.4471,1.00762 1.0076,1.00763 1.0076,2.44709 v 93.85279 q 0,1.43946 -1.0076,2.44708 -0.8637,1.00762 -2.4471,1.00762 z m 43.0398,0 q -1.4395,0 -2.4471,-1.00762 -1.0076,-1.00762 -1.0076,-2.44708 v -93.70885 q 0,-1.5834 1.0076,-2.59103 1.0076,-1.00762 2.4471,-1.00762 h 11.0838 q 2.0152,0 2.8789,1.00762 1.0076,0.86368 1.2955,1.29552 l 41.4565,64.48781 v -63.1923 q 0,-1.5834 0.8637,-2.59103 1.0076,-1.00762 2.591,-1.00762 h 12.0915 q 1.5834,0 2.591,1.00762 1.0076,1.00763 1.0076,2.59103 v 93.5649 q 0,1.58341 -1.0076,2.59103 -1.0076,1.00762 -2.4471,1.00762 h -11.2278 q -2.0152,0 -2.8789,-1.00762 -0.8637,-1.00762 -1.2955,-1.29551 l -41.3125,-63.04835 v 61.89678 q 0,1.43946 -1.0076,2.44708 -1.0077,1.00762 -2.5911,1.00762 z m 137.4685,1.43946 q -13.2431,0 -22.5996,-4.60627 -9.2125,-4.60627 -14.3946,-13.24303 -5.0381,-8.78071 -5.4699,-20.87217 -0.144,-6.18968 -0.144,-13.24303 0,-7.1973 0.144,-13.53093 0.4318,-11.94752 5.4699,-20.44033 5.1821,-8.49281 14.5386,-13.09909 9.5004,-4.60627 22.4556,-4.60627 10.508,0 18.4251,2.87892 7.917,2.73498 13.099,7.1973 5.326,4.31838 7.9171,9.35649 2.7349,5.03811 2.8789,9.35649 0.1439,1.29552 -0.7197,2.15919 -0.8637,0.86368 -2.3032,0.86368 h -14.8264 q -1.4395,0 -2.1592,-0.57579 -0.7197,-0.57578 -1.2955,-1.72735 -1.1516,-3.02286 -3.5987,-5.90178 -2.4471,-3.02287 -6.6215,-5.03811 -4.1744,-2.01525 -10.7959,-2.01525 -9.7884,0 -15.6901,5.18206 -5.7579,5.18205 -6.1897,17.12957 -0.4319,12.5233 0,25.3345 0.4318,12.23541 6.3336,17.56141 6.0457,5.326 15.8341,5.326 6.4775,0 11.5156,-2.30313 5.1821,-2.30314 8.061,-7.1973 3.0229,-4.89417 3.0229,-12.52331 v -4.46232 h -17.5614 q -1.4395,0 -2.4471,-1.00762 -1.0076,-1.00763 -1.0076,-2.59103 v -7.62914 q 0,-1.58341 1.0076,-2.59103 1.0076,-1.00762 2.4471,-1.00762 h 34.4031 q 1.5834,0 2.447,1.00762 1.0077,1.00762 1.0077,2.59103 v 15.11433 q 0,12.09146 -5.326,20.87217 -5.1821,8.78071 -14.9704,13.53092 -9.6444,4.75022 -22.8874,4.75022 z m 116.7403,-1.43946 q -1.4395,0 -2.4471,-1.00762 -1.0076,-1.00762 -1.0076,-2.44708 v -79.60214 h -26.63 q -1.4395,0 -2.4471,-1.00762 -1.0076,-1.00762 -1.0076,-2.44708 v -10.65201 q 0,-1.5834 1.0076,-2.59103 1.0076,-1.00762 2.4471,-1.00762 h 73.4124 q 1.5834,0 2.5911,1.00762 1.0076,1.00763 1.0076,2.59103 v 10.65201 q 0,1.43946 -1.0076,2.44708 -1.0077,1.00762 -2.5911,1.00762 h -26.486 v 79.60214 q 0,1.43946 -1.0077,2.44708 -1.0076,1.00762 -2.591,1.00762 z m 44.7671,0 q -1.1515,0 -2.1592,-0.86367 -0.8636,-0.86368 -0.8636,-2.15919 0,-0.57579 0.2879,-1.29552 l 34.691,-92.84517 q 0.4318,-1.43946 1.5834,-2.44708 1.2955,-1.15157 3.4547,-1.15157 h 15.6901 q 2.1592,0 3.3107,1.15157 1.1516,1.00762 1.7274,2.44708 l 34.691,92.84517 q 0.1439,0.71973 0.1439,1.29552 0,1.29551 -0.8637,2.15919 -0.8636,0.86367 -2.0152,0.86367 h -12.5233 q -2.0152,0 -3.0229,-0.86367 -0.8636,-1.00763 -1.1515,-1.8713 l -6.7655,-17.56141 h -42.752 l -6.7654,17.56141 q -0.2879,0.86367 -1.2955,1.8713 -0.8637,0.86367 -2.879,0.86367 z m 28.5013,-36.85017 h 32.6758 l -16.4099,-44.47932 z m 80.8979,36.85017 q -1.4395,0 -2.4471,-1.00762 -1.0076,-1.00762 -1.0076,-2.44708 v -93.70885 q 0,-1.5834 1.0076,-2.59103 1.0076,-1.00762 2.4471,-1.00762 h 41.7443 q 11.6596,0 19.0009,3.59865 7.3412,3.45471 10.7959,9.64438 3.5987,6.18968 3.5987,14.3946 0,5.46995 -2.0153,9.64439 -1.8712,4.03048 -4.7502,6.62151 -2.7349,2.59103 -5.4699,4.03049 5.6139,2.59103 9.9323,8.63676 4.3183,6.04573 4.3183,14.3946 0,8.63676 -3.8865,15.40222 -3.8865,6.76546 -11.5157,10.65201 -7.6291,3.74259 -18.8569,3.74259 z m 16.5538,-15.25827 h 24.039 q 7.773,0 11.8035,-4.17444 4.0305,-4.31838 4.0305,-10.36411 0,-6.33362 -4.1744,-10.50806 -4.0305,-4.17443 -11.6596,-4.17443 h -24.039 z m 0,-44.19143 h 22.5995 q 7.6291,0 11.3717,-3.59865 3.8866,-3.74259 3.8866,-9.64438 0,-6.04573 -3.8866,-9.50043 -3.7426,-3.45471 -11.3717,-3.45471 h -22.5995 z"
     id="text32"
     transform="scale(0.95963893,1.0420586)"
     aria-label="REOPEN EXISTING TAB" />
</svg>
 
